<svg width="32" height="32" viewBox="0 0 32 32" fill="none" xmlns="http://www.w3.org/2000/svg">
<g clip-path="url(#clip0)">
<path d="M29.8722 16.4145C29.7435 16.151 29.7435 15.8489 29.8722 15.5855L31.0657 13.144C31.7302 11.7846 31.2037 10.1642 29.8671 9.45506L27.4665 8.18132C27.2075 8.04395 27.0299 7.79945 26.9792 7.51076L26.5097 4.83397C26.2483 3.3436 24.8697 2.34211 23.3718 2.55404L20.681 2.93467C20.3905 2.97567 20.1033 2.88229 19.8927 2.67848L17.9395 0.78899C16.8519 -0.263128 15.1482 -0.263191 14.0607 0.78899L12.1075 2.67867C11.8967 2.88254 11.6095 2.97573 11.3191 2.93485L8.62835 2.55423C7.12992 2.34217 5.75181 3.34379 5.49037 4.83415L5.02087 7.51083C4.97019 7.79957 4.79262 8.04401 4.53369 8.18145L2.13308 9.45519C0.796461 10.1643 0.269964 11.7847 0.93446 13.1442L2.12789 15.5857C2.25664 15.8491 2.25664 16.1512 2.12789 16.4146L0.934397 18.8561C0.269901 20.2155 0.796398 21.8358 2.13302 22.545L4.53363 23.8187C4.79262 23.9561 4.97019 24.2006 5.02087 24.4893L5.49037 27.1661C5.72837 28.5228 6.89174 29.4743 8.22879 29.4742C8.36048 29.4742 8.4941 29.4649 8.62841 29.4459L11.3192 29.0653C11.6094 29.0241 11.8968 29.1177 12.1075 29.3215L14.0607 31.211C14.6046 31.7371 15.3022 32.0001 16.0001 32.0001C16.6977 32 17.3958 31.737 17.9394 31.211L19.8927 29.3215C20.1034 29.1177 20.3907 29.0246 20.681 29.0653L23.3718 29.4459C24.8704 29.6579 26.2483 28.6564 26.5097 27.166L26.9793 24.4894C27.03 24.2006 27.2076 23.9562 27.4665 23.8187L29.8671 22.545C31.2037 21.8359 31.7302 20.2154 31.0657 18.856L29.8722 16.4145ZM29.002 20.9146L26.6014 22.1883C25.8361 22.5945 25.3111 23.3169 25.1614 24.1704L24.6919 26.8471C24.6035 27.3513 24.1373 27.69 23.6303 27.6185L20.9395 27.2378C20.0813 27.1163 19.2322 27.3925 18.6094 27.9949L16.6562 29.8843C16.2883 30.2402 15.7119 30.2402 15.3439 29.8843L13.3907 27.9948C12.8643 27.4856 12.1762 27.2097 11.4578 27.2097C11.3262 27.2097 11.1935 27.219 11.0606 27.2378L8.36985 27.6184C7.86323 27.69 7.39667 27.3513 7.30817 26.847L6.83861 24.1702C6.68886 23.3167 6.16399 22.5943 5.39856 22.1882L2.99795 20.9145C2.5457 20.6746 2.36758 20.1264 2.59239 19.6664L3.78588 17.2249C4.16638 16.4464 4.16638 15.5535 3.78588 14.775L2.59239 12.3335C2.36758 11.8736 2.5457 11.3254 2.99795 11.0854L5.39856 9.81169C6.16393 9.4055 6.68886 8.68313 6.83855 7.82964L7.30805 5.1529C7.39655 4.64866 7.86267 4.30991 8.36973 4.38153L11.0605 4.76216C11.9183 4.88359 12.7678 4.60753 13.3906 4.0051L15.3438 2.11561C15.7117 1.75973 16.2881 1.75973 16.6561 2.11561L18.6093 4.0051C19.2321 4.60759 20.0814 4.88359 20.9393 4.76216L23.6301 4.38153C24.1368 4.30985 24.6034 4.64866 24.6918 5.1529L25.1613 7.8297C25.3111 8.68319 25.8359 9.40563 26.6014 9.81169L29.002 11.0854C29.4542 11.3254 29.6324 11.8736 29.4075 12.3335L28.2141 14.775C27.8336 15.5534 27.8336 16.4464 28.2141 17.2248L29.4075 19.6663C29.6324 20.1264 29.4543 20.6746 29.002 20.9146Z" fill="white"/>
<path d="M22.7426 9.25722C22.3823 8.89685 21.798 8.89685 21.4376 9.25722L9.2571 21.4378C8.89672 21.7981 8.89672 22.3825 9.2571 22.7428C9.43728 22.923 9.67347 23.0131 9.90959 23.0131C10.1457 23.0131 10.382 22.9231 10.5621 22.7428L22.7426 10.5623C23.1031 10.2019 23.1031 9.61765 22.7426 9.25722Z" fill="white"/>
<path d="M12.3087 7.6947C10.443 7.6947 8.92505 9.21263 8.92505 11.0784C8.92505 12.9441 10.443 14.462 12.3087 14.462C14.1745 14.462 15.6924 12.9441 15.6924 11.0784C15.6924 9.21263 14.1745 7.6947 12.3087 7.6947ZM12.3087 12.6164C11.4607 12.6164 10.7707 11.9264 10.7707 11.0783C10.7707 10.2302 11.4607 9.54032 12.3087 9.54032C13.1568 9.54032 13.8468 10.2302 13.8468 11.0783C13.8467 11.9264 13.1568 12.6164 12.3087 12.6164Z" fill="white"/>
<path d="M19.6913 17.538C17.8255 17.538 16.3076 19.0559 16.3076 20.9216C16.3076 22.7874 17.8255 24.3053 19.6913 24.3053C21.557 24.3053 23.075 22.7874 23.075 20.9216C23.075 19.0559 21.557 17.538 19.6913 17.538ZM19.6913 22.4596C18.8432 22.4596 18.1532 21.7697 18.1532 20.9216C18.1532 20.0736 18.8432 19.3836 19.6913 19.3836C20.5393 19.3836 21.2293 20.0736 21.2293 20.9216C21.2293 21.7697 20.5393 22.4596 19.6913 22.4596Z" fill="white"/>
</g>
<defs>
<clipPath id="clip0">
<rect width="32" height="32" fill="white"/>
</clipPath>
</defs>
</svg>
