<svg width="36" height="36" viewBox="0 0 36 36" fill="none" xmlns="http://www.w3.org/2000/svg">
<path d="M31.2687 16.8479V32.8525H4.77268V16.8479H2.30408V34.0868C2.30408 34.7685 2.85659 35.321 3.53834 35.321H32.5029C33.1847 35.321 33.7372 34.7685 33.7372 34.0868V16.8479H31.2687Z" fill="white"/>
<path d="M34.7657 7.59033H1.23427C0.552516 7.59033 0 8.14285 0 8.8246V16.8886C0 17.5703 0.552516 18.1229 1.23427 18.1229H34.7657C35.4474 18.1229 35.9999 17.5707 35.9999 16.8886V8.8246C36 8.14285 35.4475 7.59033 34.7657 7.59033ZM33.5314 15.6548H2.4686V10.0594H33.5315V15.6548H33.5314Z" fill="white"/>
<path d="M19.2146 8.51254C19.1306 8.19248 17.0945 0.678955 11.1497 0.678955C8.5635 0.678955 6.45947 2.78299 6.45947 5.36922C6.45947 7.95546 8.54501 10.0595 11.1086 10.0595H18.0206C18.4028 10.0595 18.7641 9.88216 18.9977 9.57932C19.2314 9.27649 19.3113 8.88239 19.2146 8.51254ZM11.1087 7.59096C9.88594 7.59096 8.92807 6.61502 8.92807 5.36922C8.92807 4.16498 9.94557 3.14749 11.1498 3.14749C13.8582 3.14749 15.4801 5.81564 16.2598 7.59089H11.1087V7.59096Z" fill="white"/>
<path d="M24.8914 0.678955C18.9466 0.678955 16.9105 8.19248 16.8265 8.51254C16.7294 8.88239 16.8096 9.27656 17.0434 9.57939C17.2771 9.88223 17.6378 10.0596 18.0205 10.0596H24.9325C27.4961 10.0596 29.5816 7.95553 29.5816 5.36929C29.5817 2.78299 27.4777 0.678955 24.8914 0.678955ZM24.9326 7.59096H19.7765C20.5505 5.81563 22.1674 3.14756 24.8919 3.14756C26.0961 3.14756 27.1136 4.16505 27.1136 5.36929C27.1135 6.61502 26.1557 7.59096 24.9326 7.59096Z" fill="white"/>
<path d="M19.2549 8.8252H16.7863V34.0869H19.2549V8.8252Z" fill="white"/>
</svg>
