<svg width="25" height="25" viewBox="0 0 25 25" fill="none" xmlns="http://www.w3.org/2000/svg">
<g clip-path="url(#clip0)">
<path d="M25 2.44141V22.5586C25 23.9048 23.9048 25 22.5586 25H20.1822C19.6428 25 19.2057 24.5628 19.2057 24.0234C19.2057 23.484 19.6428 23.0469 20.1822 23.0469H22.5586C22.8279 23.0469 23.0469 22.8279 23.0469 22.5586V13.526H14.4205C13.8811 13.526 13.4439 13.0888 13.4439 12.5494C13.4439 12.01 13.8811 11.5728 14.4205 11.5728H23.0469V2.44141C23.0469 2.17209 22.8279 1.95312 22.5586 1.95312H11.5271V4.81777C11.5271 5.35717 11.0897 5.79433 10.5505 5.79433C10.0111 5.79433 9.57394 5.35717 9.57394 4.81777V1.95312H2.44141C2.17209 1.95312 1.95312 2.17209 1.95312 2.44141V11.5234H9.57394V8.65879C9.57394 8.11939 10.0111 7.68223 10.5505 7.68223C11.0897 7.68223 11.5271 8.11939 11.5271 8.65879V16.341C11.5271 16.8804 11.0897 17.3176 10.5505 17.3176C10.0111 17.3176 9.57394 16.8804 9.57394 16.341V13.4766H1.95312V22.5586C1.95312 22.8279 2.17209 23.0469 2.44141 23.0469H9.57394V20.1822C9.57394 19.6428 10.0111 19.2057 10.5505 19.2057C11.0897 19.2057 11.5271 19.6428 11.5271 20.1822V23.0469H16.341C16.8804 23.0469 17.3176 23.484 17.3176 24.0234C17.3176 24.5628 16.8804 25 16.341 25H2.44141C1.0952 25 0 23.9048 0 22.5586V2.44141C0 1.0952 1.0952 0 2.44141 0H22.5586C23.9048 0 25 1.0952 25 2.44141Z" fill="white"/>
</g>
<defs>
<clipPath id="clip0">
<rect width="25" height="25" fill="white"/>
</clipPath>
</defs>
</svg>
