<svg width="47" height="48" viewBox="0 0 47 48" fill="none" xmlns="http://www.w3.org/2000/svg">
<g clip-path="url(#clip0)">
<path d="M21.3413 36.5928C20.9831 36.9583 20.9831 37.5519 21.3413 37.9181C21.7002 38.284 22.2811 38.284 22.639 37.9181C22.9979 37.5519 22.9979 36.9583 22.639 36.5928C22.2811 36.2262 21.7002 36.2262 21.3413 36.5928Z" fill="#275DE0"/>
<path d="M44.882 34.9645L37.9126 28.9121C37.8804 28.8843 37.8463 28.8586 37.8108 28.8356C35.9824 27.6469 33.6348 27.9102 32.1018 29.4753L28.3019 33.3557C28.0387 33.6249 27.6461 33.7043 27.3019 33.5593C23.0111 31.7466 19.4862 29.0176 16.8252 25.4489C14.796 22.7275 14.0645 20.5651 13.968 20.2604C13.9565 20.1952 13.9382 20.1304 13.9124 20.067C13.7701 19.7155 13.8479 19.3152 14.1118 19.0464L17.9113 15.1649C19.4443 13.5994 19.7017 11.2018 18.5378 9.33448C18.5284 9.31947 18.5188 9.30482 18.5087 9.29017L13.4757 2.14723C11.8922 -0.361682 8.44298 -0.74071 6.37288 1.37306L5.61197 2.15016C5.61162 2.15089 5.6109 2.15162 5.61018 2.15199L2.89357 4.9264C-0.345858 8.23512 -0.875842 13.2068 1.36135 19.3049C3.27761 24.5286 7.11371 30.2455 12.1629 35.4021C17.3315 40.6807 23.0806 44.6709 28.3511 46.6378C33.5677 48.5842 39.1168 48.8241 43.0443 44.8126L45.6064 42.1964C47.6671 40.0914 47.3075 36.5919 44.882 34.9645ZM36.7752 30.385L43.7385 36.4323C43.7704 36.4601 43.8045 36.4857 43.84 36.5088C45.3274 37.476 45.5526 39.6 44.3079 40.8707L44.1179 41.0652L32.2413 31.9839L33.3999 30.801C34.3053 29.876 35.6851 29.7086 36.7752 30.385ZM11.942 3.17738C11.9513 3.19239 11.961 3.20741 11.9711 3.22169L17.002 10.3621C17.6854 11.4794 17.5273 12.9058 16.6133 13.8392L15.4905 14.9862L7.45544 2.91883L7.67095 2.69874C8.92061 1.4225 10.9986 1.66383 11.942 3.17738ZM28.9807 44.8767C23.9563 43.0017 18.4445 39.166 13.461 34.0764C8.59286 29.1051 4.90629 23.6255 3.08003 18.6472C1.70917 14.9104 0.789411 9.72669 4.19163 6.25245L6.13407 4.26832L14.1692 16.3357L12.8141 17.7203C12.0431 18.5062 11.8007 19.6693 12.1855 20.705C12.4752 21.9193 13.8084 24.4399 15.1535 26.2974C17.1328 29.0308 20.7255 32.8097 26.6001 35.2919C27.6325 35.728 28.8097 35.4885 29.6 34.6818L30.93 33.3231L42.8066 42.4044L41.7462 43.4869C38.0991 47.212 32.7914 46.2987 28.9807 44.8767Z" fill="#275DE0"/>
<path d="M19.6185 34.3546C18.6489 33.4863 16.9718 31.9929 16.0886 31.0649C13.9228 28.7919 11.6505 26.0365 10.2994 24.0458C10.0107 23.6203 9.43876 23.5141 9.02208 23.8092C8.60541 24.104 8.50178 24.6881 8.79044 25.1137C10.4944 27.6244 12.998 30.5094 14.7727 32.372C15.705 33.3519 17.3964 34.8585 18.408 35.7642C18.7884 36.1047 19.3682 36.0674 19.7035 35.6774C20.0377 35.2885 19.9997 34.6959 19.6185 34.3546Z" fill="#275DE0"/>
</g>
<defs>
<clipPath id="clip0">
<rect width="47" height="48" fill="white"/>
</clipPath>
</defs>
</svg>
