<svg width="48" height="48" viewBox="0 0 48 48" fill="none" xmlns="http://www.w3.org/2000/svg">
<path d="M43.3125 4.125H38.8437V2.8125C38.8437 1.26169 37.582 0 36.0312 0C34.4804 0 33.2187 1.26169 33.2187 2.8125V4.125H17.4687V2.8125C17.4687 1.26169 16.207 0 14.6562 0C13.1054 0 11.8437 1.26169 11.8437 2.8125V4.15969C11.764 4.13766 11.6805 4.125 11.5938 4.125H7.85841C5.27372 4.125 3.17091 6.22781 3.17091 8.8125V24.7812C3.17091 25.299 3.59072 25.7187 4.10841 25.7187C4.62609 25.7187 5.04591 25.299 5.04591 24.7812V13.7812H38.8437C39.3614 13.7812 39.7812 13.3615 39.7812 12.8438C39.7812 12.326 39.3614 11.9062 38.8437 11.9062H5.04591V8.8125C5.04591 7.26169 6.30759 6 7.85841 6H11.5938C11.6805 6 11.764 5.98725 11.8437 5.96531V7.17188C11.8437 8.72269 13.1054 9.98438 14.6562 9.98438C16.207 9.98438 17.4687 8.72269 17.4687 7.17188V6H33.2187V7.17188C33.2187 8.72269 34.4804 9.98438 36.0312 9.98438C37.582 9.98438 38.8437 8.72269 38.8437 7.17188V6H43.3125C44.8633 6 46.125 7.26169 46.125 8.8125V44.4369C46.125 45.3677 45.3678 46.125 44.4369 46.125C43.5061 46.125 42.7489 45.3677 42.7489 44.4369V42.0117C42.7489 41.4939 42.3291 41.0742 41.8114 41.0742H30.9063C30.3886 41.0742 29.9688 41.4939 29.9688 42.0117C29.9688 42.5295 30.3886 42.9492 30.9063 42.9492H40.8739V44.4369C40.8739 45.0473 41.0284 45.6222 41.3 46.125H3.5625C2.63203 46.125 1.875 45.368 1.875 44.4375V42.9492H22.8586C23.3763 42.9492 23.7961 42.5295 23.7961 42.0117C23.7961 41.4939 23.3763 41.0742 22.8586 41.0742H13.4915C15.1297 39.6634 16.1699 37.5765 16.1699 35.25C16.1699 31.0111 12.7213 27.5625 8.48241 27.5625C4.2435 27.5625 0.794906 31.0111 0.794906 35.25C0.794906 37.5765 1.83516 39.6634 3.47334 41.0742H0.9375C0.419813 41.0742 0 41.4939 0 42.0117V44.4375C0 46.4018 1.59816 48 3.5625 48H44.4369C46.4016 48 48 46.4017 48 44.4369V8.8125C48 6.22781 45.8972 4.125 43.3125 4.125ZM15.5937 7.17188C15.5937 7.68881 15.1732 8.10938 14.6562 8.10938C14.1393 8.10938 13.7187 7.68881 13.7187 7.17188V2.8125C13.7187 2.29556 14.1393 1.875 14.6562 1.875C15.1732 1.875 15.5937 2.29556 15.5937 2.8125V7.17188ZM36.9687 7.17188C36.9687 7.68881 36.5482 8.10938 36.0312 8.10938C35.5143 8.10938 35.0937 7.68881 35.0937 7.17188V2.8125C35.0937 2.29556 35.5143 1.875 36.0312 1.875C36.5482 1.875 36.9687 2.29556 36.9687 2.8125V7.17188ZM2.66991 35.25C2.66991 32.045 5.27737 29.4375 8.48241 29.4375C11.6874 29.4375 14.2949 32.045 14.2949 35.25C14.2949 38.455 11.6874 41.0625 8.48241 41.0625C5.27737 41.0625 2.66991 38.455 2.66991 35.25Z" fill="#275DE0"/>
<path d="M43.9037 12.1809C43.7294 12.0066 43.4875 11.9062 43.241 11.9062C42.9943 11.9062 42.7525 12.0066 42.5782 12.1809C42.4038 12.3553 42.3035 12.5972 42.3035 12.8438C42.3035 13.0903 42.4037 13.3322 42.5782 13.5066C42.7526 13.6809 42.9943 13.7812 43.241 13.7812C43.4875 13.7812 43.7294 13.6809 43.9037 13.5066C44.0781 13.3322 44.1785 13.0903 44.1785 12.8438C44.1785 12.5972 44.0782 12.3553 43.9037 12.1809Z" fill="#275DE0"/>
<path d="M27.9982 41.3485C27.8239 41.1741 27.582 41.0747 27.3354 41.0747C27.0889 41.0747 26.847 41.1741 26.6726 41.3485C26.4983 41.5238 26.3979 41.7647 26.3979 42.0113C26.3979 42.2588 26.4982 42.4997 26.6726 42.675C26.847 42.8494 27.0889 42.9488 27.3354 42.9488C27.582 42.9488 27.8239 42.8494 27.9982 42.675C28.1725 42.4997 28.2729 42.2578 28.2729 42.0113C28.2729 41.7647 28.1726 41.5238 27.9982 41.3485Z" fill="#275DE0"/>
<path d="M21.2104 28.5C19.2461 28.5 17.6479 30.0982 17.6479 32.0625C17.6479 34.0268 19.2461 35.625 21.2104 35.625C23.1748 35.625 24.7729 34.0268 24.7729 32.0625C24.7729 30.0982 23.1748 28.5 21.2104 28.5ZM21.2104 33.75C20.28 33.75 19.5229 32.993 19.5229 32.0625C19.5229 31.132 20.28 30.375 21.2104 30.375C22.1409 30.375 22.8979 31.132 22.8979 32.0625C22.8979 32.993 22.1409 33.75 21.2104 33.75Z" fill="#275DE0"/>
<path d="M29.9604 28.5C27.9961 28.5 26.3979 30.0982 26.3979 32.0625C26.3979 34.0268 27.9961 35.625 29.9604 35.625C31.9248 35.625 33.5229 34.0268 33.5229 32.0625C33.5229 30.0982 31.9248 28.5 29.9604 28.5ZM29.9604 33.75C29.03 33.75 28.2729 32.993 28.2729 32.0625C28.2729 31.132 29.03 30.375 29.9604 30.375C30.8909 30.375 31.6479 31.132 31.6479 32.0625C31.6479 32.993 30.8909 33.75 29.9604 33.75Z" fill="#275DE0"/>
<path d="M38.7104 28.5C36.7461 28.5 35.1479 30.0982 35.1479 32.0625C35.1479 34.0268 36.7461 35.625 38.7104 35.625C40.6748 35.625 42.2729 34.0268 42.2729 32.0625C42.2729 30.0982 40.6748 28.5 38.7104 28.5ZM38.7104 33.75C37.78 33.75 37.0229 32.993 37.0229 32.0625C37.0229 31.132 37.78 30.375 38.7104 30.375C39.6409 30.375 40.3979 31.132 40.3979 32.0625C40.3979 32.993 39.6409 33.75 38.7104 33.75Z" fill="#275DE0"/>
<path d="M12.4604 18.75C10.4961 18.75 8.89795 20.3482 8.89795 22.3125C8.89795 24.2768 10.4961 25.875 12.4604 25.875C14.4248 25.875 16.0229 24.2768 16.0229 22.3125C16.0229 20.3482 14.4248 18.75 12.4604 18.75ZM12.4604 24C11.53 24 10.7729 23.243 10.7729 22.3125C10.7729 21.382 11.53 20.625 12.4604 20.625C13.3909 20.625 14.1479 21.382 14.1479 22.3125C14.1479 23.243 13.3909 24 12.4604 24Z" fill="#275DE0"/>
<path d="M29.9604 18.75C27.9961 18.75 26.3979 20.3482 26.3979 22.3125C26.3979 24.2768 27.9961 25.875 29.9604 25.875C31.9248 25.875 33.5229 24.2768 33.5229 22.3125C33.5229 20.3482 31.9248 18.75 29.9604 18.75ZM29.9604 24C29.03 24 28.2729 23.243 28.2729 22.3125C28.2729 21.382 29.03 20.625 29.9604 20.625C30.8909 20.625 31.6479 21.382 31.6479 22.3125C31.6479 23.243 30.8909 24 29.9604 24Z" fill="#275DE0"/>
<path d="M38.7104 18.75C36.7461 18.75 35.1479 20.3482 35.1479 22.3125C35.1479 24.2768 36.7461 25.875 38.7104 25.875C40.6748 25.875 42.2729 24.2768 42.2729 22.3125C42.2729 20.3482 40.6748 18.75 38.7104 18.75ZM38.7104 24C37.78 24 37.0229 23.243 37.0229 22.3125C37.0229 21.382 37.78 20.625 38.7104 20.625C39.6409 20.625 40.3979 21.382 40.3979 22.3125C40.3979 23.243 39.6409 24 38.7104 24Z" fill="#275DE0"/>
<path d="M21.2104 18.75C19.2461 18.75 17.6479 20.3482 17.6479 22.3125C17.6479 24.2768 19.2461 25.875 21.2104 25.875C23.1748 25.875 24.7729 24.2768 24.7729 22.3125C24.7729 20.3482 23.1748 18.75 21.2104 18.75ZM21.2104 24C20.28 24 19.5229 23.243 19.5229 22.3125C19.5229 21.382 20.28 20.625 21.2104 20.625C22.1409 20.625 22.8979 21.382 22.8979 22.3125C22.8979 23.243 22.1409 24 21.2104 24Z" fill="#275DE0"/>
<path d="M11.8221 32.9652C11.4559 32.5992 10.8625 32.5992 10.4962 32.9652L7.44313 36.0184L6.39979 34.9751C6.0336 34.609 5.44017 34.609 5.07389 34.9751C4.70779 35.3412 4.70779 35.9348 5.07389 36.301L6.78023 38.0071C6.9561 38.1829 7.19451 38.2817 7.44313 38.2817C7.69176 38.2817 7.93017 38.1829 8.10604 38.0071L11.8221 34.2911C12.1882 33.925 12.1882 33.3313 11.8221 32.9652Z" fill="#275DE0"/>
</svg>
