<svg width="48" height="48" viewBox="0 0 48 48" fill="none" xmlns="http://www.w3.org/2000/svg">
<g clip-path="url(#clip0)">
<path d="M10.3088 24.9375C9.79138 24.9375 9.37134 25.3575 9.37134 25.875C9.37134 26.3925 9.79138 26.8125 10.3088 26.8125C10.8263 26.8125 11.2463 26.3925 11.2463 25.875C11.2463 25.3575 10.8263 24.9375 10.3088 24.9375Z" fill="#275DE0"/>
<path d="M45.9441 19.1854C45.8551 18.7357 46.0074 18.0879 46.1543 17.4613C46.3762 16.5168 46.6271 15.4468 46.2213 14.4664C45.8071 13.4685 44.8623 12.8848 44.0284 12.3699C43.4897 12.037 42.9324 11.6927 42.6885 11.328C42.4391 10.9552 42.3318 10.3037 42.2285 9.67383C42.0707 8.71216 41.8916 7.62195 41.1346 6.86499C40.3777 6.10803 39.2871 5.92932 38.3254 5.77148C37.6956 5.66821 37.0444 5.56128 36.6727 5.31299C36.3073 5.06836 35.9634 4.51099 35.6305 3.97192C35.1152 3.13806 34.5315 2.1925 33.5332 1.77869C32.5536 1.37256 31.4835 1.62378 30.5394 1.84534C29.9125 1.99255 29.2643 2.14453 28.8149 2.05591C28.3678 1.96729 27.7244 1.58423 27.1022 1.21362C26.1006 0.617065 25.0646 0 24 0C22.9347 0 21.8983 0.617065 20.896 1.21362C20.2738 1.58423 19.6304 1.96729 19.1832 2.05591C18.7343 2.14453 18.0864 1.99255 17.4598 1.84534C16.5154 1.62378 15.4453 1.37256 14.4653 1.77869C13.4674 2.19287 12.8837 3.13806 12.3684 3.97192C12.0359 4.51099 11.6917 5.06836 11.3269 5.31262C10.9552 5.56128 10.3041 5.66821 9.67419 5.77148C8.71216 5.92932 7.62195 6.1084 6.86426 6.86536C6.10803 7.62158 5.92932 8.71069 5.77148 9.672C5.66821 10.3022 5.56128 10.9541 5.31079 11.3276C5.06653 11.6931 4.50952 12.037 3.97083 12.3699C3.13733 12.8851 2.1925 13.4685 1.77869 14.4672C1.37292 15.4468 1.62341 16.5165 1.8446 17.4602C1.99146 18.0868 2.14343 18.735 2.05408 19.1854C1.96582 19.6329 1.58276 20.2764 1.21216 20.8989C0.616333 21.9005 0 22.9358 0 24C0 25.0649 0.616333 26.101 1.21252 27.1029C1.58276 27.7255 1.96582 28.3689 2.05408 28.8175C2.14307 29.2665 1.99146 29.9147 1.8446 30.5413C1.62341 31.4854 1.37292 32.5551 1.77869 33.5343C2.19287 34.5326 3.13733 35.116 3.97083 35.6312C4.50952 35.9637 5.06653 36.308 5.31189 36.6746C5.56128 37.0463 5.66858 37.6981 5.77185 38.3284C5.92932 39.2893 6.10803 40.3784 6.86426 41.1357C7.62085 41.892 8.70996 42.0707 9.6709 42.2285C10.3015 42.3318 10.9534 42.4387 11.3269 42.6892C11.692 42.9335 12.0363 43.4905 12.3691 44.0292C12.884 44.8627 13.4678 45.8071 14.4661 46.2213C15.4449 46.6271 16.5146 46.3762 17.4587 46.1554C18.0853 46.0085 18.7339 45.8569 19.1836 45.9459C19.6307 46.0342 20.2745 46.4172 20.8971 46.7875C21.899 47.3837 22.9351 48 24 48C25.0642 48 26.0999 47.3837 27.1011 46.7878C27.7236 46.4172 28.3674 46.0342 28.8153 45.9459C29.265 45.8569 29.9132 46.0085 30.5405 46.1554C31.4843 46.3766 32.554 46.6271 33.5336 46.2213C34.5315 45.8075 35.1152 44.8627 35.6301 44.0292C35.963 43.4905 36.3069 42.9335 36.6731 42.6888C37.0459 42.4387 37.6978 42.3318 38.328 42.2285C39.2889 42.0707 40.3784 41.892 41.1346 41.1357C41.8916 40.3792 42.0707 39.2889 42.2285 38.3273C42.3318 37.697 42.4391 37.0459 42.6881 36.6731C42.9324 36.308 43.4897 35.9637 44.0284 35.6309C44.8623 35.116 45.8071 34.5322 46.2213 33.5339C46.6271 32.5543 46.3762 31.4843 46.1543 30.5402C46.0074 29.9136 45.8555 29.2661 45.9441 28.8171C46.0323 28.3696 46.4158 27.7262 46.786 27.104C47.3829 26.1017 48 25.0653 48 24C48 22.9354 47.3829 21.8994 46.7864 20.8978C46.4158 20.2756 46.0327 19.6322 45.9441 19.1854ZM45.175 26.1449C44.7235 26.9037 44.2562 27.6885 44.1046 28.4528V28.4531C43.9373 29.2998 44.1365 30.1479 44.3291 30.9686C44.4939 31.6699 44.6638 32.395 44.4895 32.8162C44.3075 33.2552 43.6648 33.6519 43.0433 34.036C42.334 34.474 41.6008 34.9266 41.1299 35.6309C40.6549 36.3413 40.5143 37.1964 40.3784 38.0233C40.2609 38.7393 40.1393 39.4797 39.809 39.8097C39.4794 40.1393 38.74 40.2609 38.0248 40.3781C37.1964 40.5139 36.3402 40.6545 35.6298 41.131C34.9259 41.6016 34.4733 42.3347 34.0349 43.0437C33.6511 43.6648 33.2545 44.3071 32.8154 44.4891C32.3939 44.6638 31.6692 44.4939 30.9679 44.3298C30.1472 44.1376 29.2983 43.9387 28.4517 44.1064C27.6866 44.2573 26.9015 44.7246 26.1423 45.1765C25.3953 45.6211 24.5486 46.125 24 46.125C23.4507 46.125 22.6036 45.6207 21.8558 45.1761C21.0967 44.7242 20.3115 44.2573 19.5476 44.1064C18.705 43.9395 17.8638 44.1346 17.031 44.3298C16.3301 44.4939 15.605 44.6638 15.1838 44.4895C14.7448 44.3071 14.3481 43.6648 13.964 43.0437C13.526 42.3347 13.0734 41.6016 12.3702 41.1313C11.6591 40.6545 10.8029 40.5139 9.97449 40.3781C9.25964 40.2609 8.5199 40.1396 8.19067 39.8101C7.86072 39.4801 7.7395 38.7404 7.62195 38.0248C7.48608 37.1968 7.34583 36.3402 6.86938 35.6305C6.39844 34.927 5.66565 34.474 4.95667 34.036C4.33521 33.6522 3.69287 33.2552 3.51086 32.8165C3.33618 32.395 3.5061 31.6699 3.67017 30.969C3.86243 30.1479 4.06128 29.2994 3.89355 28.4535C3.74268 27.6885 3.27576 26.9033 2.82385 26.1442C2.37927 25.3967 1.875 24.5493 1.875 24C1.875 23.4514 2.37891 22.6047 2.82349 21.8577C3.27539 21.0985 3.74268 20.3134 3.89319 19.5491C4.06128 18.702 3.86243 17.8531 3.67017 17.0325C3.5061 16.3312 3.33618 15.6064 3.5105 15.1849C3.69287 14.7455 4.33521 14.3489 4.9563 13.9651C5.66528 13.5267 6.39844 13.0741 6.86865 12.371C7.34546 11.6598 7.48608 10.8036 7.62195 9.97522C7.73914 9.26001 7.86035 8.52063 8.18994 8.19141C8.52063 7.86108 9.26147 7.7395 9.97815 7.62195C10.8051 7.48608 11.6598 7.34583 12.3699 6.87085C13.0734 6.39954 13.526 5.66638 13.964 4.9574C14.3478 4.33557 14.7448 3.69287 15.1835 3.51086C15.605 3.33618 16.3301 3.5061 17.0314 3.6709C17.8517 3.86353 18.7002 4.06274 19.5472 3.89539C20.3115 3.74414 21.0963 3.27686 21.8551 2.82495C22.6029 2.37964 23.4507 1.875 24 1.875C24.5486 1.875 25.3956 2.37964 26.1427 2.82458C26.9015 3.27649 27.6863 3.74377 28.4513 3.89539C29.2983 4.06274 30.1469 3.86353 30.9675 3.6709C31.6688 3.50647 32.3939 3.33618 32.8151 3.5105C33.2542 3.69287 33.6511 4.33557 34.0349 4.9574C34.4729 5.66638 34.9259 6.39954 35.6301 6.87158C36.3402 7.34583 37.1949 7.48608 38.0219 7.62158C38.7382 7.73914 39.4786 7.86072 39.809 8.19104C40.1389 8.521 40.2609 9.26147 40.3784 9.97742C40.5143 10.8047 40.6545 11.6598 41.1299 12.3702C41.6008 13.0741 42.334 13.5267 43.0433 13.9651C43.6648 14.3489 44.3071 14.7455 44.4891 15.1842C44.6638 15.6061 44.4935 16.3312 44.3291 17.0325C44.1365 17.8531 43.9373 18.7017 44.1046 19.5487C44.2562 20.3137 44.7235 21.0985 45.1754 21.8573C45.6204 22.6044 46.125 23.4514 46.125 24C46.125 24.5493 45.6204 25.3971 45.175 26.1449Z" fill="#275DE0"/>
<path d="M23.9963 5.625C14.1969 5.625 5.62134 14.1683 5.62134 24C5.62134 33.7994 14.1647 42.375 23.9963 42.375C33.7958 42.375 42.3713 33.8317 42.3713 24C42.3713 14.2006 33.828 5.625 23.9963 5.625ZM23.9963 40.5C15.2065 40.5 7.49634 32.7898 7.49634 24C7.49634 15.2102 15.2065 7.5 23.9963 7.5C32.7861 7.5 40.4963 15.2102 40.4963 24C40.4963 32.7898 32.7861 40.5 23.9963 40.5Z" fill="#275DE0"/>
<path d="M23.9966 11.25C24.5144 11.25 24.9341 10.8303 24.9341 10.3125C24.9341 9.79468 24.5144 9.375 23.9966 9.375C16.9434 9.375 10.4958 15.1512 9.51403 21.9939C9.44042 22.5062 9.79638 22.9812 10.3091 23.0548C10.3541 23.0614 10.3988 23.0643 10.4435 23.0643C10.902 23.0643 11.303 22.7274 11.37 22.2598C12.2262 16.292 18.0083 11.25 23.9966 11.25Z" fill="#275DE0"/>
<path d="M32.5648 21.7878L27.2123 21.0104L24.8195 16.1603C24.6616 15.8402 24.3357 15.6377 23.9786 15.6377C23.6219 15.6377 23.296 15.8402 23.1382 16.1603L20.7443 21.0104L15.3914 21.7878C15.0383 21.8391 14.745 22.0867 14.6348 22.4261C14.5245 22.7653 14.6164 23.1381 14.8721 23.3871L18.7451 27.1623L17.8311 32.494C17.7706 32.8456 17.9153 33.2012 18.2042 33.4106C18.4928 33.6205 18.8755 33.6479 19.1915 33.482L23.9786 30.9647L28.765 33.482C29.0778 33.6461 29.4608 33.6227 29.7527 33.4106C30.0413 33.2012 30.1859 32.8456 30.1255 32.4936L29.2114 27.1623L33.0848 23.3871C33.3405 23.1377 33.4324 22.7653 33.3222 22.4258C33.2116 22.0867 32.9182 21.8391 32.5648 21.7878ZM27.5496 26.1637C27.3287 26.379 27.2277 26.6896 27.28 26.9935L27.9564 30.9383L24.4152 29.0758C24.142 28.9322 23.8157 28.9322 23.5425 29.0758L20.0001 30.9383L20.6765 26.9935C20.7285 26.6896 20.6278 26.3794 20.407 26.1637L17.541 23.3706L21.5016 22.7953C21.807 22.751 22.071 22.5591 22.2076 22.2822L23.9786 18.6937L25.7489 22.2822C25.8855 22.5591 26.1495 22.751 26.455 22.7953L30.4155 23.3706L27.5496 26.1637Z" fill="#275DE0"/>
</g>
<defs>
<clipPath id="clip0">
<rect width="48" height="48" fill="white"/>
</clipPath>
</defs>
</svg>
