<svg width="28" height="28" viewBox="0 0 28 28" fill="none" xmlns="http://www.w3.org/2000/svg">
<path d="M26.3594 12.7716V6.3988C26.3594 3.68488 24.1514 1.47693 21.4375 1.47693H16.2695C15.9675 1.47693 15.7227 1.72176 15.7227 2.0238C15.7227 2.32584 15.9675 2.57068 16.2695 2.57068H21.4375C23.5483 2.57068 25.2656 4.28798 25.2656 6.3988V12.196C24.8537 12.0543 24.4125 11.9763 23.9531 11.9763H23.8438V8.84087C23.8438 7.67488 22.8951 6.72627 21.7291 6.72627H15.5677C14.9466 6.72627 14.3872 6.99555 14 7.42337C13.6128 6.99555 13.0534 6.72627 12.4323 6.72627H6.27085C5.10486 6.72627 4.15625 7.67488 4.15625 8.84082V11.9762H4.04688C3.5875 11.9762 3.14628 12.0543 2.73438 12.1959V6.3988C2.73438 4.28798 4.45167 2.57068 6.5625 2.57068H11.8398C12.1419 2.57068 12.3867 2.32584 12.3867 2.0238C12.3867 1.72176 12.1419 1.47693 11.8398 1.47693H6.5625C3.84858 1.47693 1.64062 3.68488 1.64062 6.3988V12.7717C0.645969 13.5097 0 14.6923 0 16.0232V23.0232C0 23.3252 0.244836 23.5701 0.546875 23.5701H1.64062V25.9763C1.64062 26.2784 1.88546 26.5232 2.1875 26.5232H5.14128C5.44332 26.5232 5.68816 26.2784 5.68816 25.9763V23.5701H22.3118V25.9763C22.3118 26.2784 22.5567 26.5232 22.8587 26.5232H25.8125C26.1145 26.5232 26.3594 26.2784 26.3594 25.9763V23.5701H27.4531C27.7552 23.5701 28 23.3252 28 23.0232V16.0232C28 14.6923 27.354 13.5097 26.3594 12.7716ZM14.5469 8.84082C14.5469 8.27792 15.0048 7.81997 15.5677 7.81997H21.7292C22.2921 7.81997 22.7501 8.27792 22.7501 8.84082V11.9762H14.5469V8.84082ZM5.25 8.84082C5.25 8.27792 5.70795 7.81997 6.27085 7.81997H12.4323C12.9952 7.81997 13.4532 8.27792 13.4532 8.84082V11.9762H5.25V8.84082ZM4.59441 25.4294H2.73438V23.57H4.59441V25.4294ZM25.2656 25.4294H23.4056V23.57H25.2656V25.4294ZM26.9062 19.8513H5.02693C4.72489 19.8513 4.48005 20.0961 4.48005 20.3981C4.48005 20.7002 4.72489 20.945 5.02693 20.945H26.9062V22.4763H25.8257C25.8213 22.4762 25.817 22.4756 25.8125 22.4756H22.8587C22.8542 22.4756 22.8499 22.4762 22.8455 22.4763H5.15452C5.15009 22.4762 5.14577 22.4756 5.14128 22.4756H2.1875C2.18302 22.4756 2.1787 22.4762 2.17427 22.4763H1.09375V16.0231C1.09375 14.3948 2.4185 13.07 4.04688 13.07H4.70312H14H23.2969H23.9531C25.5815 13.07 26.9062 14.3948 26.9062 16.0231V19.8513Z" fill="#F3AF01"/>
<path d="M14.3866 1.63707C14.2849 1.53535 14.1438 1.47684 14 1.47684C13.8562 1.47684 13.7151 1.53535 13.6134 1.63707C13.5116 1.73879 13.4531 1.87988 13.4531 2.02371C13.4531 2.16754 13.5116 2.30863 13.6134 2.41035C13.7151 2.51207 13.8562 2.57059 14 2.57059C14.1438 2.57059 14.2849 2.51207 14.3866 2.41035C14.4884 2.30863 14.5469 2.16809 14.5469 2.02371C14.5469 1.87988 14.4884 1.73874 14.3866 1.63707Z" fill="#F3AF01"/>
<path d="M3.23466 20.0114C3.13294 19.9097 2.99185 19.8512 2.84802 19.8512C2.70365 19.8512 2.5631 19.9097 2.46138 20.0114C2.35966 20.1132 2.30115 20.2543 2.30115 20.3981C2.30115 20.5419 2.35966 20.683 2.46138 20.7847C2.5631 20.8864 2.70419 20.945 2.84802 20.945C2.99185 20.945 3.13294 20.8864 3.23466 20.7847C3.33638 20.683 3.3949 20.5419 3.3949 20.3981C3.3949 20.2543 3.33638 20.1132 3.23466 20.0114Z" fill="#F3AF01"/>
</svg>
