<svg width="28" height="28" viewBox="0 0 28 28" fill="none" xmlns="http://www.w3.org/2000/svg">
<path d="M21.1094 22.2031C21.1094 22.5052 20.8646 22.75 20.5625 22.75C20.2604 22.75 20.0156 22.5052 20.0156 22.2031C20.0156 21.9011 20.2604 21.6562 20.5625 21.6562C20.8646 21.6562 21.1094 21.9011 21.1094 22.2031Z" fill="#F3AF01"/>
<path d="M27.4531 3.0625H0.546875C0.244812 3.0625 0 3.30731 0 3.60938V6.89062C0 7.19269 0.244812 7.4375 0.546875 7.4375H1.09375V24.3906C1.09375 24.6927 1.33856 24.9375 1.64062 24.9375H26.3594C26.6614 24.9375 26.9062 24.6927 26.9062 24.3906V7.4375H27.4531C27.7552 7.4375 28 7.19269 28 6.89062V3.60938C28 3.30731 27.7552 3.0625 27.4531 3.0625ZM22.2031 14H5.79688V12.9062H22.2031V14ZM5.79688 15.0938H22.2031V16.1875H5.79688V15.0938ZM22.2031 11.8125H5.79688V10.7188H22.2031V11.8125ZM5.79688 17.2812H22.2031V23.8438H5.79688V17.2812ZM25.8125 23.8438H23.2969V10.1719C23.2969 9.86981 23.0521 9.625 22.75 9.625H5.25C4.94794 9.625 4.70312 9.86981 4.70312 10.1719V23.8438H2.1875V7.4375H25.8125V23.8438ZM26.9062 6.34375C25.6927 6.34375 2.5152 6.34375 1.09375 6.34375V4.15625H26.9062V6.34375Z" fill="#F3AF01"/>
<path d="M14.3867 18.5352C14.175 18.3235 13.831 18.3218 13.617 18.5318C13.6159 18.5329 13.6144 18.5339 13.6133 18.5352L12.5196 19.629C12.306 19.8426 12.306 20.1887 12.5196 20.4023C12.733 20.6159 13.0793 20.6159 13.2929 20.4023L13.4531 20.2423V22.2031C13.4531 22.5052 13.6979 22.75 14 22.75C14.3021 22.75 14.5469 22.5052 14.5469 22.2031V20.2421L14.7071 20.4023C14.9207 20.6159 15.2668 20.6159 15.4804 20.4023C15.694 20.1887 15.694 19.8426 15.4804 19.629L14.3867 18.5352Z" fill="#F3AF01"/>
<path d="M20.5625 18.375C20.2604 18.375 20.0156 18.6198 20.0156 18.9219V20.0156C20.0156 20.3177 20.2604 20.5625 20.5625 20.5625C20.8646 20.5625 21.1094 20.3177 21.1094 20.0156V18.9219C21.1094 18.6198 20.8646 18.375 20.5625 18.375Z" fill="#F3AF01"/>
</svg>
