<svg width="28" height="28" viewBox="0 0 28 28" fill="none" xmlns="http://www.w3.org/2000/svg">
<g clip-path="url(#clip0)">
<path d="M28 3.30496C28 1.48254 26.5175 0 24.695 0C23.2204 0 22.0074 1.13776 21.8857 2.58142H14.5086C14.2066 2.58142 13.9618 2.82623 13.9618 3.1283C13.9618 3.43036 14.2066 3.67517 14.5086 3.67517H21.875V23.3986C21.8697 23.4699 21.8694 23.6799 21.875 23.7113V23.7209C21.875 24.0228 22.1198 24.2678 22.4219 24.2678C22.7239 24.2678 22.9688 24.0228 22.9688 23.7209V23.4368C23.058 22.5659 23.7959 21.8842 24.6899 21.8842C25.912 21.8842 26.9062 22.8784 26.9062 24.1003C26.9062 25.6476 25.6476 26.9062 24.1003 26.9062H1.09375V3.67517H10.6136C10.9157 3.67517 11.1605 3.43036 11.1605 3.1283C11.1605 2.82623 10.9157 2.58142 10.6136 2.58142H0.546875C0.244812 2.58142 0 2.82623 0 3.1283V27.4531C0 27.7552 0.244812 28 0.546875 28H24.1003C26.2506 28 28 26.2506 28 24.1003C28 24.0104 28 3.30496 28 3.30496ZM24.6899 20.7904C24.0424 20.7904 23.4456 21.01 22.9688 21.3779V2.82004C22.9688 1.86813 23.7431 1.09375 24.695 1.09375C24.7029 1.09375 24.7108 1.09439 24.719 1.09439V7.90768C24.719 8.20975 24.9638 8.45456 25.2658 8.45456C25.5677 8.45456 25.8127 8.20975 25.8127 7.90768V1.39816C26.4662 1.78268 26.9062 2.49319 26.9062 3.30496V21.6443C26.319 21.1139 25.5416 20.7904 24.6899 20.7904Z" fill="#F3AF01"/>
<path d="M12.563 3.67497C12.707 3.67497 12.848 3.61708 12.9496 3.51476C13.0513 3.41307 13.1099 3.27251 13.1099 3.1281C13.1099 2.98433 13.0513 2.84312 12.9496 2.74144C12.848 2.63976 12.707 2.58122 12.563 2.58122C12.4192 2.58122 12.2782 2.63976 12.1763 2.74144C12.0746 2.84312 12.0161 2.98433 12.0161 3.1281C12.0161 3.27251 12.0746 3.41307 12.1763 3.51476C12.2782 3.61708 12.4192 3.67497 12.563 3.67497Z" fill="#F3AF01"/>
<path d="M6.44479 7.70218L5.84024 9.51562H4.04688C3.74481 9.51562 3.5 9.76044 3.5 10.0625V20.125C3.5 20.4271 3.74481 20.6719 4.04688 20.6719H11.5277L12.1323 22.4853C12.2066 22.7088 12.4156 22.8594 12.651 22.8594H16.8801C17.1155 22.8594 17.3246 22.7088 17.399 22.4853L18.0035 20.6719H19.7969C20.0989 20.6719 20.3438 20.4271 20.3438 20.125V10.0625C20.3438 9.76044 20.0989 9.51562 19.7969 9.51562H12.316L11.7115 7.70218C11.6371 7.47873 11.4282 7.32812 11.1928 7.32812H6.96368C6.72806 7.32812 6.51913 7.47873 6.44479 7.70218ZM4.59375 10.6094H5.6875V19.5781H4.59375V10.6094ZM6.78125 10.6094H11.375V19.5781H6.78125V10.6094ZM16.4861 21.7656H13.0451L12.6807 20.6719H16.8506L16.4861 21.7656ZM19.25 19.5781H18.1562V10.6094H19.25V19.5781ZM17.0625 19.5781H12.4688V10.6094H17.0625V19.5781ZM7.3576 8.42188H10.7986L11.1631 9.51562H6.99316L7.3576 8.42188Z" fill="#F3AF01"/>
<path d="M25.2656 9.6906C25.1219 9.6906 24.9807 9.7487 24.879 9.85081C24.7773 9.9525 24.7188 10.0937 24.7188 10.2375C24.7188 10.3812 24.7773 10.5224 24.879 10.6241C24.9807 10.7258 25.1219 10.7843 25.2656 10.7843C25.4094 10.7843 25.5506 10.7258 25.6523 10.6241C25.7546 10.5224 25.8125 10.3812 25.8125 10.2375C25.8125 10.0937 25.7546 9.9525 25.6523 9.85081C25.5506 9.7487 25.4094 9.6906 25.2656 9.6906Z" fill="#F3AF01"/>
</g>
<defs>
<clipPath id="clip0">
<rect width="28" height="28" fill="white"/>
</clipPath>
</defs>
</svg>
