<svg width="28" height="28" viewBox="0 0 28 28" fill="none" xmlns="http://www.w3.org/2000/svg">
<path d="M26.3408 13.921H4.55701V11.8644C4.55701 11.2227 4.03491 10.7008 3.3934 10.7008H3.35538V3.75891C3.35538 2.5607 4.33014 1.58594 5.52835 1.58594C6.72656 1.58594 7.70132 2.5607 7.70132 3.75891V4.96951C6.60822 5.13763 5.7298 6.01541 5.58902 7.14227L5.47623 8.04526C5.44803 8.26913 5.51767 8.49451 5.66699 8.66391C5.81631 8.8331 6.03143 8.93008 6.25702 8.93008H9.90933C10.1349 8.93008 10.35 8.8331 10.4994 8.66391C10.6487 8.49472 10.7183 8.26935 10.6903 8.04526L10.5775 7.14227C10.4511 6.13141 9.73138 5.32092 8.79507 5.04343V3.75891C8.79507 1.95764 7.32962 0.492188 5.52835 0.492188C3.72708 0.492188 2.26163 1.95764 2.26163 3.75891V10.7008C1.62653 10.7085 1.11212 11.2276 1.11212 11.8644V14.0135C0.465271 14.2399 0 14.8566 0 15.58C0 16.4947 0.744263 17.239 1.65921 17.239H1.71475V19.8541C1.71475 22.3505 3.52542 24.4321 5.90219 24.8546V26.4256H3.26117C2.95911 26.4256 2.71429 26.6704 2.71429 26.9725C2.71429 27.2745 2.95911 27.5193 3.26117 27.5193H25.2216C25.5235 27.5193 25.7685 27.2745 25.7685 26.9725C25.7685 26.6704 25.5235 26.4256 25.2216 26.4256H22.0978V24.8546C24.4746 24.4321 26.2852 22.3505 26.2852 19.8541V17.239H26.3408C27.2557 17.239 28 16.4947 28 15.58C28 14.6652 27.2557 13.921 26.3408 13.921ZM9.49213 7.27792L9.56198 7.83633H6.60458L6.67422 7.27792C6.76288 6.56891 7.3685 6.03421 8.08328 6.03421C8.79785 6.03421 9.40347 6.56891 9.49213 7.27792ZM2.20609 11.8644C2.20609 11.8257 2.23727 11.7946 2.27594 11.7946H3.3934C3.43185 11.7946 3.46326 11.8257 3.46326 11.8644V13.9207H2.20609V11.8644ZM6.99594 26.4256V24.933H8.7468L7.99463 26.4256H6.99594ZM18.0285 24.933L18.7807 26.4258H9.21933L9.9715 24.933H18.0285ZM20.0054 26.4256L19.2534 24.933H21.0041V26.4256H20.0054ZM26.3408 16.1452H22.1316C21.8297 16.1452 21.5847 16.39 21.5847 16.6921C21.5847 16.9941 21.8297 17.239 22.1316 17.239H25.1915V19.8541C25.1915 22.0515 23.4037 23.8393 21.2061 23.8393H6.79385C4.59631 23.8393 2.8085 22.0515 2.8085 19.8541V17.239H17.7566C18.0586 17.239 18.3034 16.9941 18.3034 16.6921C18.3034 16.39 18.0586 16.1452 17.7566 16.1452H1.65921C1.34732 16.1452 1.09375 15.8916 1.09375 15.58C1.09375 15.2683 1.34732 15.0147 1.65921 15.0147H26.3408C26.6527 15.0147 26.9062 15.2683 26.9062 15.58C26.9062 15.8916 26.6527 16.1452 26.3408 16.1452Z" fill="#F3AF01"/>
<path d="M17.9644 12.3C18.9086 12.3 19.6768 11.532 19.6768 10.5878C19.6768 9.64359 18.9086 8.87561 17.9644 8.87561C17.0202 8.87561 16.2522 9.64359 16.2522 10.5878C16.2522 11.532 17.0204 12.3 17.9644 12.3ZM17.9644 9.96936C18.3053 9.96936 18.583 10.2469 18.583 10.5878C18.583 10.929 18.3055 11.2062 17.9644 11.2062C17.6232 11.2062 17.3459 10.929 17.3459 10.5878C17.3459 10.2469 17.6234 9.96936 17.9644 9.96936Z" fill="#F3AF01"/>
<path d="M22.9101 8.86127C21.7168 8.86127 20.7458 9.83219 20.7458 11.0257C20.7458 12.219 21.7168 13.1899 22.9101 13.1899C24.1036 13.1899 25.0745 12.219 25.0745 11.0257C25.0745 9.83219 24.1036 8.86127 22.9101 8.86127ZM22.9101 12.0962C22.3198 12.0962 21.8396 11.6159 21.8396 11.0257C21.8396 10.4352 22.3198 9.95502 22.9101 9.95502C23.5005 9.95502 23.9807 10.4352 23.9807 11.0257C23.9807 11.6159 23.5005 12.0962 22.9101 12.0962Z" fill="#F3AF01"/>
<path d="M21.7767 7.90405C23.3237 7.90405 24.5824 6.64539 24.5824 5.09833C24.5824 3.55127 23.3237 2.2926 21.7767 2.2926C20.2296 2.2926 18.9709 3.55127 18.9709 5.09833C18.9709 6.64539 20.2296 7.90405 21.7767 7.90405ZM21.7767 3.38635C22.7207 3.38635 23.4886 4.15433 23.4886 5.09833C23.4886 6.04233 22.7207 6.8103 21.7767 6.8103C20.8327 6.8103 20.0647 6.04233 20.0647 5.09833C20.0647 4.15433 20.8329 3.38635 21.7767 3.38635Z" fill="#F3AF01"/>
<path d="M19.9442 16.1452H19.943C19.6409 16.1452 19.3967 16.39 19.3967 16.6921C19.3967 16.9941 19.6424 17.239 19.9442 17.239C20.2463 17.239 20.4911 16.9941 20.4911 16.6921C20.4911 16.39 20.2463 16.1452 19.9442 16.1452Z" fill="#F3AF01"/>
</svg>
