<svg width="28" height="28" viewBox="0 0 28 28" fill="none" xmlns="http://www.w3.org/2000/svg">
<path d="M18.8677 12.8692C19.3442 12.5309 19.9144 12.3594 20.5625 12.3594H21.6562C21.9583 12.3594 22.2031 12.1145 22.2031 11.8125C22.2031 10.3048 20.9765 9.07812 19.4688 9.07812H16.461C16.159 9.07812 15.9141 9.32296 15.9141 9.625C15.9141 9.92704 16.159 10.1719 16.461 10.1719H19.4688C20.1818 10.1719 20.7899 10.629 21.0157 11.2656H6.9843C7.21 10.629 7.81823 10.1719 8.53125 10.1719H11.5391C11.8412 10.1719 12.086 9.92704 12.086 9.625C12.086 9.32296 11.8412 9.07812 11.5391 9.07812H8.53125C7.02352 9.07812 5.79688 10.3048 5.79688 11.8125C5.79688 12.1145 6.04171 12.3594 6.34375 12.3594H7.4375C8.08516 12.3594 8.65484 12.531 9.1309 12.8696C10.5094 13.8497 11.9931 14.4167 13.4531 14.5267V20.2698L10.4154 22.2949C10.2149 22.4286 10.1255 22.6778 10.1953 22.9084C10.2652 23.139 10.4777 23.2968 10.7188 23.2968H17.2812C17.5223 23.2968 17.7348 23.139 17.8047 22.9084C17.8745 22.6778 17.7851 22.4286 17.5846 22.2949L14.5469 20.2698V14.5265C16.0052 14.4161 17.4884 13.849 18.8677 12.8692ZM17.6531 12.3594C16.459 13.0849 15.2405 13.4531 14.0224 13.4531H13.9754C12.756 13.4531 11.5374 13.0849 10.3444 12.3594H17.6531ZM12.525 22.2031L14 21.2198L15.475 22.2031H12.525Z" fill="#F3AF01"/>
<path d="M1.09375 16.6403V22.75C1.09375 23.052 1.33859 23.2969 1.64062 23.2969C1.94266 23.2969 2.1875 23.052 2.1875 22.75V20.0156H6.89062V22.75C6.89062 23.052 7.13546 23.2969 7.4375 23.2969C7.73954 23.2969 7.98438 23.052 7.98438 22.75V16.6403C8.62088 16.4146 9.07812 15.8067 9.07812 15.0938C9.07812 14.1891 8.34214 13.4531 7.4375 13.4531H3.28125V7.4375C3.28125 5.92977 2.05461 4.70312 0.546875 4.70312C0.244836 4.70312 0 4.94796 0 5.25V15.0938C0 15.8067 0.457242 16.4146 1.09375 16.6403ZM2.1875 18.9219V16.7344H6.89062V18.9219H2.1875ZM1.09375 5.89055C1.73037 6.11625 2.1875 6.72448 2.1875 7.4375V14C2.1875 14.302 2.43234 14.5469 2.73438 14.5469H7.4375C7.73905 14.5469 7.98438 14.7922 7.98438 15.0938C7.98438 15.3953 7.73905 15.6406 7.4375 15.6406H1.64062C1.33908 15.6406 1.09375 15.3953 1.09375 15.0938V5.89055Z" fill="#F3AF01"/>
<path d="M14.0001 10.172C14.3022 10.172 14.547 9.92711 14.547 9.62508C14.547 9.32305 14.3022 9.07821 14.0001 9.07821C13.6981 9.07821 13.4532 9.32305 13.4532 9.62508C13.4532 9.92711 13.6981 10.172 14.0001 10.172Z" fill="#F3AF01"/>
<path d="M27.4531 4.70312C25.9454 4.70312 24.7188 5.92977 24.7188 7.4375V13.4531H20.5625C19.6579 13.4531 18.9219 14.1891 18.9219 15.0938C18.9219 15.8067 19.3791 16.4146 20.0156 16.6403V22.75C20.0156 23.052 20.2605 23.2969 20.5625 23.2969C20.8645 23.2969 21.1094 23.052 21.1094 22.75V20.0156H25.8125V22.75C25.8125 23.052 26.0573 23.2969 26.3594 23.2969C26.6614 23.2969 26.9062 23.052 26.9062 22.75V16.6403C27.5428 16.4146 28 15.8067 28 15.0938V5.25C28 4.94796 27.7552 4.70312 27.4531 4.70312ZM21.1094 18.9219V16.7344H25.8125V18.9219H21.1094ZM26.9062 15.0938C26.9062 15.3953 26.6609 15.6406 26.3594 15.6406H20.5625C20.261 15.6406 20.0156 15.3953 20.0156 15.0938C20.0156 14.7922 20.261 14.5469 20.5625 14.5469H25.2656C25.5677 14.5469 25.8125 14.302 25.8125 14V7.4375C25.8125 6.72448 26.2696 6.1163 26.9062 5.89055V15.0938Z" fill="#F3AF01"/>
</svg>
