<svg width="37" height="37" viewBox="0 0 37 37" fill="none" xmlns="http://www.w3.org/2000/svg">
<path d="M18.5 0.289062C10.6899 0.289062 4.33594 6.64302 4.33594 14.4531C4.33594 18.2471 6.63449 23.1192 11.1677 28.9336C13.2446 31.5905 15.4937 34.1083 17.9006 36.4704C18.062 36.6248 18.2767 36.7109 18.5 36.7109C18.7233 36.7109 18.938 36.6248 19.0994 36.4704C21.5063 34.1083 23.7554 31.5905 25.8323 28.9336C30.3655 23.1192 32.6641 18.2471 32.6641 14.4531C32.6641 6.64302 26.3101 0.289062 18.5 0.289062ZM18.5 24.5703C12.9211 24.5703 8.38281 20.032 8.38281 14.4531C8.38281 8.87422 12.9211 4.33594 18.5 4.33594C24.0789 4.33594 28.6172 8.87422 28.6172 14.4531C28.6172 20.032 24.0789 24.5703 18.5 24.5703Z" fill="#275DE0"/>
<path d="M25.4425 13.2333L19.0831 7.45208C18.9235 7.30697 18.7155 7.22656 18.4998 7.22656C18.2841 7.22656 18.0761 7.30697 17.9165 7.45208L11.5571 13.2333C11.4089 13.3681 11.312 13.5499 11.2826 13.748C11.2532 13.9461 11.2933 14.1482 11.3959 14.3201C11.477 14.451 11.5905 14.5587 11.7255 14.6327C11.8605 14.7066 12.0124 14.7444 12.1663 14.7422H13.0076V20.2344C13.0076 20.4644 13.099 20.6849 13.2616 20.8476C13.4242 21.0102 13.6448 21.1015 13.8748 21.1015H15.8982C16.1282 21.1015 16.3488 21.0102 16.5114 20.8476C16.6741 20.6849 16.7654 20.4644 16.7654 20.2344V17.0547C16.7654 16.8247 16.8568 16.6041 17.0194 16.4415C17.182 16.2788 17.4026 16.1875 17.6326 16.1875H19.367C19.597 16.1875 19.8175 16.2788 19.9802 16.4415C20.1428 16.6041 20.2342 16.8247 20.2342 17.0547V20.2344C20.2342 20.4644 20.3255 20.6849 20.4882 20.8476C20.6508 21.0102 20.8714 21.1015 21.1014 21.1015H23.1248C23.3548 21.1015 23.5754 21.0102 23.738 20.8476C23.9006 20.6849 23.992 20.4644 23.992 20.2344V14.7422H24.8333C24.9872 14.7444 25.1391 14.7066 25.2741 14.6327C25.4091 14.5587 25.5226 14.451 25.6036 14.3201C25.7063 14.1482 25.7464 13.9461 25.717 13.748C25.6876 13.5499 25.5907 13.3681 25.4425 13.2333Z" fill="#275DE0"/>
</svg>
